<svg xmlns="http://www.w3.org/2000/svg" viewBox="0 0 500 500"><path fill="#020200" d="M413.5 188.8s-3.2-22.8-13.1-32.8c-12.6-13.2-26.6-13.2-33.1-14-46.2-3.3-115.5-3.3-115.5-3.3h-.1s-69.3 0-115.5 3.3c-6.5.8-20.5.8-33.1 14-9.9 10-13.1 32.8-13.1 32.8s-3.3 26.7-3.3 53.4v25.1c0 26.7 3.3 53.4 3.3 53.4s3.2 22.8 13.1 32.8c12.6 13.2 29.1 12.7 36.4 14.1 26.4 2.5 112.3 3.3 112.3 3.3s69.4-.1 115.6-3.4c6.5-.8 20.5-.8 33.1-14 9.9-10 13.1-32.8 13.1-32.8s3.3-26.7 3.3-53.4v-25.1c-.1-26.7-3.4-53.4-3.4-53.4zM217.6 297.7v-92.8l89.2 46.6-89.2 46.2z"/></svg>