<svg xmlns="http://www.w3.org/2000/svg" viewBox="0 0 500 500"><path d="M349.8 114.7H149.3c-19 0-34.6 15.6-34.6 34.6v200.5c0 19 15.6 34.6 34.6 34.6h200.5c19 0 34.6-15.6 34.6-34.6V149.3c0-19-15.5-34.6-34.6-34.6zm-50.7 42.1c0-6.7 5.5-12.1 12.1-12.1h30.5c6.7 0 12.1 5.5 12.1 12.1v29.1c0 6.7-5.5 12.1-12.1 12.1h-30.5c-6.7 0-12.1-5.5-12.1-12.1v-29.1zm-49.3 39.7c29.9 0 54.2 23.5 54.2 52.5s-24.3 52.5-54.2 52.5-54.1-23.5-54.1-52.5 24.2-52.5 54.1-52.5zM354 342.7c0 5.9-4.8 10.7-10.7 10.7H155.4c-5.9 0-10.7-4.8-10.7-10.7V228.8h24.8c-2.2 7.3-3.5 15.1-3.5 23.1 0 44.9 37.5 81.2 83.8 81.2s83.8-36.4 83.8-81.2c0-8-1.2-15.8-3.5-23.1H354v113.9z"/></svg>