<svg xmlns="http://www.w3.org/2000/svg" viewBox="0 0 500 500"><path fill="#020200" d="M402.2 178.5c2.3-13 2.3-26.4-5.8-36.5-11.2-14.2-35.1-14.7-51.4-12.2-13.3 2.1-58.3 21.9-73.6 69.4 27.1-2 41.3 2 38.7 31.8-1.1 12.5-7.4 26.2-14.4 39.3-8.1 15.1-23.4 44.8-43.4 23.4-18-19.3-16.7-56.1-20.8-80.6-2.3-13.8-4.7-30.9-9.2-45.1-3.9-12.2-12.8-26.8-23.7-30-11.7-3.4-26.2 1.9-34.7 6.9-27.1 15.9-47.7 38.5-71.1 57.2v1.7c4.6 4.4 5.9 11.7 12.7 12.7 16.1 2.4 31.5-15 42.2 3.1 6.5 11.1 8.6 23.2 12.7 35.1 5.6 15.9 9.9 33.1 14.4 51.4 7.7 30.9 17.2 77.1 43.9 88.4 13.6 5.8 34.1-1.9 44.5-8.1 28.1-16.6 50-40.7 68.7-65.3 43.1-58.1 66.7-123.8 70.3-142.6"/></svg>