<svg xmlns="http://www.w3.org/2000/svg" viewBox="0 0 500 500"><g fill-rule="evenodd" clip-rule="evenodd" fill="#020200"><path d="M106.5 185.8h67.4v202.9h-67.4zM140.7 88c-23.1 0-38.2 15.2-38.2 35.1 0 19.5 14.6 35.1 37.3 35.1h.4c23.5 0 38.2-15.6 38.2-35.1-.4-20-14.6-35.1-37.7-35.1zM339.5 181c-35.8 0-51.8 19.7-60.8 33.5v.7h-.4c.1-.2.3-.4.4-.7v-28.8h-67.4c.9 19 0 202.9 0 202.9h67.4V275.4c0-6.1.4-12.1 2.2-16.5 4.9-12.1 16-24.7 34.6-24.7 24.4 0 34.2 18.6 34.2 45.9v108.6h67.4V272.3c0-62.3-33.2-91.3-77.6-91.3z"/></g></svg>