<svg xmlns="http://www.w3.org/2000/svg" viewBox="0 0 500 500"><path fill="#020200" d="M271 314.3c-16.6 0-32.3-9-37.6-19.2 0 0-9 35.5-10.9 42.4-6.7 24.2-26.3 48.4-27.8 50.4-1.1 1.4-3.4.9-3.7-.9-.4-3.1-5.4-33.6.5-58.6 3-12.5 19.8-84 19.8-84s-4.9-9.8-4.9-24.4c0-22.8 13.3-39.9 29.7-39.9 14 0 20.8 10.5 20.8 23.1 0 14.1-9 35.2-13.6 54.7-3.9 16.3 8.2 29.7 24.3 29.7 29.2 0 48.9-37.5 48.9-81.9 0-33.8-22.7-59.1-64.1-59.1-46.7 0-75.9 34.9-75.9 73.8 0 13.4 4 22.9 10.2 30.2 2.8 3.4 3.3 4.7 2.2 8.6-.8 2.8-2.4 9.7-3.2 12.4-1 3.9-4.2 5.3-7.7 3.9-21.5-8.8-31.6-32.4-31.6-58.9 0-43.8 36.9-96.2 110.1-96.2 58.8 0 97.6 42.6 97.6 88.3 0 60.4-33.6 105.6-83.1 105.6z"/></svg>