<svg xmlns="http://www.w3.org/2000/svg" viewBox="0 0 500 500"><path fill="none" stroke="#000" stroke-width="2" stroke-miterlimit="10" d="M8.1 156.5l-6.9 6.8"/><path fill="#020200" d="M361.5 209.8c1.2 83.4-46 138.5-105.2 161.6-51.6 19.2-107.8 10.2-147.2-15.8 49.2 3.9 72.9-15.3 84.6-24.2-24.6 0-49.5-19.5-53.1-40.1 6.2 2 19.4 1.2 24.6-.9-3.1-1-6.3-2-9.5-3-36.7-15.2-35.8-54.3-35.7-54.5 7.3 4.3 17.7 6.7 25.8 7.5-20-15.6-35.7-42-17.7-77.2 6.4 6 44.3 56.7 119.1 60.4-3.3-7.8-4.3-49.5 33.7-66.5 3.5-1.7 38.5-14.9 65.1 13.8 13.8-4 25-8.1 36.2-13.8-2.7 15.2-16.9 26.4-24.5 31.5.8.2 14.3-1.9 32.3-8.6-7.2 12.8-24.2 27.1-28.5 29.8z"/></svg>