<svg xmlns="http://www.w3.org/2000/svg" viewBox="0 0 500 500"><g fill="#020200"><path d="M242.7 252.6c0-17.3 38-22.3 38-62.9 0-24.4-2.2-39-21.4-47.7 0-6 33.9-2.1 33.9-13.4H219s-75.1 1.8-75.1 65.4c0 63.6 65.6 56.2 65.6 56.2v16.1c0 6.5 8.8 4.3 9.9 17.5-4.4 0-91.2-2.3-91.2 55.3 0 57.6 76.5 54.8 76.5 54.8s88.4 4 88.4-67.5c0-42.7-50.4-56.6-50.4-73.8zm-64.1-54.9c-6.9-25.5 2.2-50.2 20.4-55.2s38.6 11.7 45.6 37.2c6.9 25.5-2.2 50.3-20.4 55.2-18.3 5.1-38.7-11.6-45.6-37.2zm38 177.9c-30.6 2.1-56.7-14.3-58.2-36.7-1.5-22.3 22.1-42.1 52.7-44.2 30.6-2.1 56.7 14.3 58.2 36.7 1.5 22.3-22.1 42.1-52.7 44.2z"/><path d="M359.9 215.2v-51.6h-15.2v51.6h-51.6v15.2h51.6V282h15.2v-51.6h51.6v-15.2"/></g></svg>