<svg width="500" height="500" viewBox="0 0 500 500" fill="none" xmlns="http://www.w3.org/2000/svg">
	<style>
    :root { --dark: #12120D; --light: #EEE7D6; }
    
    .dark-fill { fill: var(--dark); } 
    .light-fill { fill: var(--light); } 
    .dark-stroke { stroke: var(--dark); } 
    .light-stroke { stroke: var(--light); } 
    
    @media (prefers-color-scheme: dark) { 
    .dark-fill { fill: #000000; } 
    .light-fill { fill: #EEE7D6; }  
    .dark-stroke { stroke: #000000; } 
    .light-stroke { stroke: #EEE7D6; } 
    }
  </style>
<rect width="500" height="500" class="light-fill"/>
<path d="M185.545 233.085L189.346 203.271H186.971C180.676 223.582 174.855 228.809 153.475 228.809H149.793C146.111 228.809 144.923 227.858 144.923 223.939V164.193C144.923 151.841 145.28 150.534 156.682 148.99V146.852H116.892V148.99C128.295 150.534 128.651 151.841 128.651 164.193V215.624C128.651 227.74 128.295 229.521 116.892 230.828V232.966H161.315C165.947 232.966 179.963 233.085 185.545 233.085ZM190.653 351.546L159.296 315.556L178.3 297.977C191.484 285.743 194.573 283.13 202.293 282.179V280.041H172.955V282.179C185.545 283.13 183.526 287.287 171.648 298.214L145.161 322.801H145.042L172.955 355.347C177.112 360.216 176.993 363.423 169.035 364.017V366.155H207.282V364.017C200.155 363.067 197.78 359.979 190.653 351.546ZM144.923 348.933V297.502C144.923 285.149 145.28 283.842 156.682 282.298V280.16H116.892V282.298C128.295 283.842 128.651 285.149 128.651 297.502V348.933C128.651 361.048 128.295 362.83 116.892 364.136V366.274H156.682V364.136C145.28 362.83 144.923 361.048 144.923 348.933ZM391.585 207.112C391.585 195.511 385.646 189.849 378.401 186.563C383.588 183.317 388.18 176.071 388.18 167.836C388.18 149.861 372.502 145.506 356.665 145.506H323.684V233.045H358.842C376.699 233.045 391.585 225.918 391.585 207.072V207.112ZM339.046 157.819H358.13C366.84 157.819 372.62 161.818 372.62 169.538C372.62 178.249 367.196 182.089 358.13 182.089H339.046V157.819ZM339.046 193.809H358.605C370.324 193.809 375.748 198.045 375.748 207.112C375.748 216.179 370.443 220.771 359.436 220.771H339.046V193.848V193.809ZM363.673 278.576H347.479L314.855 366.116H330.534L337.304 346.676H372.818L379.708 366.116H396.495L363.633 278.576H363.673ZM341.817 333.887L355.002 296.314L368.305 333.887H341.857H341.817ZM257.129 409.905H265.047V101.716H257.129V409.945V409.905Z" class="dark-fill"/>
</svg>
