<svg width="144" height="144" viewBox="0 0 144 144" fill="none" xmlns="http://www.w3.org/2000/svg">
<style>
    :root { --dark: #12120D; --light: #EEE7D6; }
    
    .dark-fill { fill: var(--dark); } 
    .light-fill { fill: var(--light); } 
    .dark-stroke { stroke: var(--dark); } 
    .light-stroke { stroke: var(--light); } 
    
    @media (prefers-color-scheme: dark) { 
    .dark-fill { fill: #000000; } 
    .light-fill { fill: #EEE7D6; }  
    .dark-stroke { stroke: #000000; } 
    .light-stroke { stroke: #EEE7D6; } 
    }
  </style>
  <path d="M40.879 61.8778L42.5579 48.7088H41.5086C38.7279 57.6805 36.157 59.989 26.7131 59.989H25.0866C23.4602 59.989 22.9355 59.5693 22.9355 57.8379V31.4474C22.9355 25.9909 23.0929 25.4137 28.1297 24.7317V23.7873H10.5535V24.7317C15.5902 25.4137 15.7476 25.9909 15.7476 31.4474V54.1653C15.7476 59.5168 15.5902 60.3038 10.5535 60.8809V61.8253H30.1759C32.222 61.8253 38.4131 61.8778 40.879 61.8778ZM43.135 114.204L29.2839 98.3069L37.6785 90.5419C43.5023 85.1379 44.8664 83.9836 48.2767 83.5639V82.6195H35.3176V83.5639C40.879 83.9836 39.9871 85.8199 34.7404 90.6468L23.0404 101.507H22.988L35.3176 115.883C37.1539 118.034 37.1014 119.451 33.5862 119.713V120.658H50.4803V119.713C47.3323 119.293 46.283 117.929 43.135 114.204ZM22.9355 113.05V90.332C22.9355 84.8755 23.0929 84.2984 28.1297 83.6163V82.6719H10.5535V83.6163C15.5902 84.2984 15.7476 84.8755 15.7476 90.332V113.05C15.7476 118.401 15.5902 119.188 10.5535 119.766V120.71H28.1297V119.766C23.0929 119.188 22.9355 118.401 22.9355 113.05ZM131.89 50.4052C131.89 45.281 129.267 42.7801 126.067 41.3285C128.358 39.8944 130.386 36.694 130.386 33.0563C130.386 25.1164 123.461 23.1927 116.465 23.1927H101.897V61.8603H117.427C125.315 61.8603 131.89 58.7123 131.89 50.3877V50.4052ZM108.683 28.6317H117.112C120.96 28.6317 123.513 30.398 123.513 33.8083C123.513 37.6559 121.117 39.3523 117.112 39.3523H108.683V28.6317ZM108.683 44.529H117.322C122.499 44.529 124.895 46.4003 124.895 50.4052C124.895 54.4101 122.551 56.4388 117.69 56.4388H108.683V44.5464V44.529ZM119.561 81.9724H112.408L97.9973 120.64H104.923L107.913 112.053H123.601L126.644 120.64H134.059L119.543 81.9724H119.561ZM109.907 106.404L115.731 89.8074L121.607 106.404H109.925H109.907ZM72.4987 139.983H75.9964V3.8501H72.4987V140V139.983Z" class="dark-fill"/>
</svg>
